<?xml version="1.0" encoding="UTF-8" standalone="no"?>
<!-- Generator: Adobe Illustrator 19.0.0, SVG Export Plug-In . SVG Version: 6.00 Build 0)  -->

<svg  version="1.1" xmlns="http://www.w3.org/2000/svg" xmlns:xlink="http://www.w3.org/1999/xlink" x="0px" y="0px"
         viewBox="0 0 111.4 95.1" style="enable-background:new 0 0 111.4 95.1;" xml:space="preserve">
<style type="text/css">svg{ width:300px;overflow: visible;margin:50px; }
	.st0{fill:none;stroke:#00A7CB;stroke-width:2.1654;stroke-linecap:round;stroke-linejoin:round;stroke-miterlimit:10;}
</style>
<g id="Layer_1">
       <path class="st0" d="M17.4,94c-21.3-21.3-21.3-55.7,0-77s55.7-21.3,77,0s21.3,55.7,0,77" id="path3341" />
       <line class="st0" x1="55.9" y1="1.1" x2="55.9" y2="10.3" id="line3343" />
       <line class="st0" x1="17.4" y1="17" x2="23.9" y2="23.5" id="line3345" />
       <line class="st0" x1="1.5" y1="55.4" x2="10.7" y2="55.4" id="line3347" />
       <line class="st0" x1="94.3" y1="17" x2="87.8" y2="23.5" id="line3349" />
       <line class="st0" x1="94.3" y1="94" x2="87.8" y2="87.5" id="line3351" />
       <line class="st0" x1="17.4" y1="94" x2="23.9" y2="87.5" id="line3353" />
       <line class="st0" x1="110.2" y1="55.4" x2="101" y2="55.4" id="line3355" />
       <path class="st0" d="m 70,92.930778 -28.8,0 c -2.1,0 -3.8,-1.7 -3.8,-3.8 l 0,-1.187028 c 0,-2.1 1.7,-3.8 3.8,-3.8 l 28.8,0 c 2.1,0 3.8,1.7 3.8,3.8 l 0,1.187028 c 0,2.1 -1.7,3.8 -3.8,3.8 z" />
</g>
<g id="Gage">
  <path class="st0" d="M61.6,55.7c3.2,3.2,3.2,8.3,0,11.4c-3.2,3.2-8.3,3.2-11.4,0s-3.2-8.3,0-11.4l1.9-1.5l3.8-26.6l4.1,26.6   L61.6,55.7z" id="path3360" />
</g>
</svg>