    <?xml version="1.0" encoding="utf-8"?>
<!-- Generator: Adobe Illustrator 19.0.0, SVG Export Plug-In . SVG Version: 6.00 Build 0)  -->
<svg version="1.1" xmlns="http://www.w3.org/2000/svg" xmlns:xlink="http://www.w3.org/1999/xlink" x="0px" y="0px"
	 viewBox="0 0 88.5 88.4" style="enable-background:new 0 0 88.5 88.4;" xml:space="preserve">
<style type="text/css">
        svg{width:300px;}
        g#Top{
            transform-origin: 50%;
            animation: topRotate 2.5s ease-in-out infinite;
            animation-play-state: paused ;
        }
        g#Middle{
            transform-origin: 50%;
            animation: MiddleRotate 2.5s ease-in-out infinite;
            animation-play-state: paused ;  
        }
        svg:hover g#Top{ animation-play-state: running ; }
        svg:hover g#Middle{ animation-play-state: running ; }
        
        @-webkit-keyframes MiddleRotate{
            0%{ -moz-transform: rotateZ(0);
                -webkit-transform: rotateZ(0);
                transform: rotateZ(0);}
            90%{
                -moz-transform: rotateZ(-360deg);
                -webkit-transform: rotateZ(-360deg);
                transform: rotateZ(-360deg);
            }
            100%{ -moz-transform: rotateZ(-360deg);
                  -webkit-transform: rotateZ(-360deg);
                transform: rotateZ(-360deg);}
        }       
        @-moz-keyframes MiddleRotate{
            0%{ -moz-transform: rotateZ(0);
                -webkit-transform: rotateZ(0);
                transform: rotateZ(0);}
            90%{
                -moz-transform: rotateZ(-360deg);
                -webkit-transform: rotateZ(-360deg);
                transform: rotateZ(-360deg);
            }
            100%{ -moz-transform: rotateZ(-360deg);
                  -webkit-transform: rotateZ(-360deg);
                transform: rotateZ(-360deg);}
        }
          @keyframes MiddleRotate{
            0%{ -moz-transform: rotateZ(0);
                -webkit-transform: rotateZ(0);
                transform: rotateZ(0);}
            90%{
                -moz-transform: rotateZ(-360deg);
                -webkit-transform: rotateZ(-360deg);
                transform: rotateZ(-360deg);
            }
            100%{ -moz-transform: rotateZ(-360deg);
                -webkit-transform: rotateZ(-360deg);
                transform: rotateZ(-360deg);}
          }
        @-webkit-keyframes topRotate{
            0%{ -moz-transform: rotateZ(0);
                -webkit-transform: rotateZ(0);
                transform: rotateZ(0);}
            90%{
                -moz-transform: rotateZ(360deg);
                -webkit-transform: rotateZ(360deg);
                transform: rotateZ(360deg);
            }
            100%{ -moz-transform: rotateZ(360deg);
                -webkit-transform: rotateZ(360deg);
                transform: rotateZ(360deg);}
        }
        @-moz-keyframes topRotate{
            0%{ -moz-transform: rotateZ(0);
                -webkit-transform: rotateZ(0);
                transform: rotateZ(0);}
            90%{
                -moz-transform: rotateZ(360deg);
                -webkit-transform: rotateZ(360deg);
                transform: rotateZ(360deg);
            }
            100%{ -moz-transform: rotateZ(360deg);
                -webkit-transform: rotateZ(360deg);
                transform: rotateZ(360deg);}
        }
        @keyframes topRotate{
            0%{ -moz-transform: rotateZ(0);
                -webkit-transform: rotateZ(0);
                transform: rotateZ(0);}
            90%{
                -moz-transform: rotateZ(360deg);
                -webkit-transform: rotateZ(360deg);
                transform: rotateZ(360deg);
            }
            100%{ -moz-transform: rotateZ(360deg);
                -webkit-transform: rotateZ(360deg);
                transform: rotateZ(360deg);}
        }

	.st0{fill:none;stroke:#00B1E0;stroke-width:2.1654;stroke-linecap:round;stroke-linejoin:round;stroke-miterlimit:10;}
</style>
<g id="Top">
	<path id="XMLID_6_" class="st0" d="M74.5,60c0-5.3,4.3-9.5,9.5-9.5c1,0,2,0.2,2.9,0.4c0.3-2.2,0.5-4.4,0.5-6.7
		c0-2.6-0.2-5.2-0.7-7.6c-0.9,0.3-1.8,0.4-2.7,0.4c-5.3,0-9.5-4.3-9.5-9.5c0-3.6,2-6.7,4.9-8.3c-2.9-4-6.4-7.4-10.4-10.2
		c-1.6,3-4.8,5-8.4,5c-5.3,0-9.5-4.3-9.5-9.5c0-0.9,0.1-1.8,0.4-2.6c-2.3-0.4-4.7-0.6-7.1-0.6s-4.8,0.2-7.1,0.6
		c0.2,0.8,0.4,1.7,0.4,2.6c0,5.3-4.3,9.5-9.5,9.5c-3.6,0-6.7-2-8.4-5c-4,2.8-7.6,6.3-10.4,10.3c2.8,1.7,4.7,4.7,4.7,8.2
		c0,5.3-4.3,9.5-9.5,9.5c-0.9,0-1.7-0.1-2.5-0.3c-0.4,2.5-0.7,5-0.7,7.6c0,2.3,0.2,4.5,0.5,6.7c0.8-0.2,1.7-0.4,2.7-0.4
		c5.3,0,9.5,4.3,9.5,9.5c0,3.7-2.1,6.9-5.2,8.5c2.9,4.3,6.6,8,10.9,11c1.6-3,4.8-5,8.4-5c5.3,0,9.5,4.3,9.5,9.5
		c0,0.9-0.1,1.8-0.4,2.6c2.3,0.4,4.7,0.6,7.1,0.6s4.8-0.2,7.1-0.6c-0.2-0.8-0.4-1.7-0.4-2.6c0-5.3,4.3-9.5,9.5-9.5
		c3.6,0,6.7,2,8.4,5c4.2-3,7.9-6.7,10.9-10.9C76.7,67,74.5,63.7,74.5,60z"/>
</g>
<g id="Middle">
	<path id="XMLID_8_" class="st0" d="M61.6,60.2c-4.3,4.6-10.4,7.5-17.2,7.5c-13,0-23.5-10.5-23.5-23.5c0-6.9,3-13.1,7.7-17.4"/>
	<path id="XMLID_7_" class="st0" d="M44.4,20.7c13,0,23.5,10.5,23.5,23.5"/>
</g>
<g id="Center">
	<circle id="XMLID_9_" class="st0" cx="44.4" cy="44.2" r="11.6"/>
</g>
</svg>

